<svg width="471" height="94" viewBox="0 0 471 94" fill="none" xmlns="http://www.w3.org/2000/svg">
<path d="M231.991 1.3682C223.213 7.14502 214.519 17.0264 212.597 23.4113C212.262 24.4755 211.844 25.3369 211.677 25.3369C211.426 25.3369 209.002 24.2221 206.243 22.9046C200.559 20.1175 186.264 15.2528 179.827 13.8846C172.888 12.4151 172.47 12.7698 173.055 19.1547C173.223 22.1952 174.226 26.4518 175.229 28.8334C176.232 31.1644 176.901 33.1914 176.65 33.3434C176.399 33.4954 173.473 33.09 170.13 32.4819C162.689 31.1644 161.352 31.1644 160.349 32.3806C159.262 33.5968 161.268 41.4512 163.693 45.3024C168.625 53.4102 179.743 59.6938 193.871 62.4302C196.964 63.0383 199.555 63.697 199.555 63.8491C199.555 64.0011 194.79 64.9639 188.939 66.028C183.003 67.0415 174.059 68.6631 168.959 69.6259C163.86 70.5887 156.002 71.7035 151.571 72.1089C142.793 72.9197 140.954 73.4264 142.71 74.7439C143.462 75.2507 145.301 75.504 148.98 75.504C154.664 75.504 163.358 76.4162 176.483 78.3418C197.298 81.3822 207.33 80.2674 221.709 73.2744C224.885 71.7035 227.727 70.69 227.895 70.9941C228.396 72.0075 222.21 78.8992 218.699 81.0782C211.677 85.4361 199.388 87.6151 187.1 86.703C178.74 86.0442 174.895 85.5375 159.847 82.8518C132.678 78.0884 115.374 78.4938 90.4621 84.372C66.2191 90.0981 58.5282 91.2129 42.3941 91.2129C30.0218 91.2129 20.1574 90.3008 9.2063 88.0712C3.68894 86.9563 1.09745 86.6523 0.428674 87.0577C0.0106912 87.3111 -0.156502 87.8685 0.177884 88.1725C1.26464 89.2367 9.62428 91.2129 18.9035 92.6318C26.9288 93.848 29.2695 94 42.8121 94C60.8689 94 64.7144 93.4933 87.6198 88.2739C111.027 82.9531 120.891 81.7876 135.855 82.6491C144.716 83.1558 147.726 83.5105 162.355 86.1456C182.836 89.7434 195.376 90.5542 205.825 88.9326C217.194 87.1084 223.715 83.6119 229.985 75.9094C232.325 73.0717 234.666 70.69 235.251 70.5887C235.836 70.4367 238.01 72.5143 240.518 75.504C242.942 78.4431 246.453 81.7369 248.627 83.1558C259.243 90.0474 277.133 91.517 301.125 87.3617C329.046 82.5984 325.786 82.9531 341.669 82.9024C358.807 82.8518 359.643 82.9531 382.883 88.2232C406.206 93.4426 410.051 93.9493 428.192 93.9493C441.818 94 444.075 93.848 452.1 92.6318C461.38 91.2129 469.739 89.2367 470.826 88.1725C471.16 87.8685 470.993 87.3111 470.492 87.007C469.906 86.6523 467.315 86.9563 461.463 88.0712C447.921 90.7569 440.898 91.365 425.684 91.0609C409.717 90.8075 405.537 90.1995 383.886 85.1827C363.739 80.5208 358.472 79.8113 343.341 79.8113C329.966 79.862 323.111 80.5208 308.231 83.3585C278.471 88.9833 259.745 87.6658 249.797 79.2539C246.787 76.7202 242.775 71.7035 243.193 70.9434C243.36 70.69 246.202 71.8049 249.63 73.4264C264.594 80.6728 273.288 81.4329 298.199 77.7337C305.723 76.6695 313.581 75.8588 318.931 75.6561C324.867 75.4534 327.792 75.1493 328.461 74.5919C329.882 73.6291 327.291 72.4636 323.613 72.4636C319.015 72.4636 309.318 71.0447 294.019 68.1563C285.994 66.6361 277.635 65.1666 275.461 64.8119C270.78 64.1531 270.362 63.545 274.207 63.0889C275.628 62.8863 280.059 61.8221 283.904 60.7073C296.109 57.1601 306.225 49.6097 309.067 41.8566C310.739 37.296 311.408 33.1914 310.572 32.2793C309.652 31.1644 308.231 31.1644 300.874 32.4819C297.531 33.09 294.605 33.4954 294.437 33.3434C294.187 33.1914 294.772 31.1644 295.691 28.8334C296.611 26.5024 297.614 22.1445 297.949 19.1547C298.534 12.7698 298.116 12.4151 291.177 13.8846C284.657 15.2528 270.362 20.1175 264.677 22.9046C261.918 24.2728 259.494 25.3369 259.327 25.2356C259.243 25.1342 258.491 23.614 257.739 21.7898C255.231 15.8103 248.71 8.5132 240.351 2.38167C238.511 1.06415 236.338 0 235.586 0C234.75 0 233.161 0.608094 231.991 1.3682ZM237.843 10.4895C245.701 25.6916 245.868 42.6167 238.261 59.1364C237.09 61.7208 235.836 63.8491 235.502 63.8491C234.75 63.8491 231.824 57.7682 230.152 52.9542C226.724 43.0728 226.39 29.6442 229.232 20.0162C230.737 14.6954 234.415 7.09435 235.418 7.09435C235.753 7.09435 236.923 8.61456 237.843 10.4895ZM226.641 13.4286C223.715 20.979 222.712 26.2491 222.795 34.7116C222.795 42.7687 223.464 46.3159 226.724 56.6534C227.727 59.8965 220.287 49.4577 218.281 44.8464C215.188 37.8534 215.021 28.5294 217.779 22.6512C219.953 18.0906 226.641 9.62804 227.644 10.2361C227.727 10.3375 227.309 11.7563 226.641 13.4286ZM248.877 15.9623C253.893 22.1951 255.064 25.5396 254.98 33.1914C254.98 38.5628 254.562 40.6911 252.806 44.6943C250.884 49.0523 244.614 58.2749 243.611 58.2749C243.36 58.2749 243.694 57.0588 244.363 55.5892C249.463 43.7315 249.546 26.6038 244.614 14.4927C243.778 12.3137 243.026 10.3375 243.026 10.1854C243.109 9.47601 245.868 12.2124 248.877 15.9623ZM192.868 20.5736C202.063 23.7154 206.661 25.8943 209.754 28.7321C211.677 30.455 211.928 31.2658 212.346 36.5865L212.764 42.566L208.417 39.1202C205.992 37.2453 200.475 33.09 196.128 29.8469C188.27 24.0701 180.328 17.6345 180.328 17.0264C180.328 16.5197 184.592 17.6852 192.868 20.5736ZM287.081 20.3709C285.075 22.1445 278.888 26.8571 273.371 30.9111C267.937 34.965 262.336 39.2722 260.999 40.4377C259.578 41.6032 258.24 42.566 257.989 42.566C257.655 42.566 257.739 41.6032 258.157 40.3871C258.491 39.2216 258.825 36.5865 258.909 34.5596C258.909 32.3806 259.411 30.303 260.079 29.4415C261.5 27.7693 267.519 24.3741 272.034 22.6512C277.635 20.5229 290.007 16.6717 290.425 16.9251C290.676 17.0771 289.171 18.5973 287.081 20.3709ZM180.913 21.8911C182.335 23.1073 187.852 27.3639 193.119 31.3671C203.234 38.9682 209.253 43.9849 213.767 48.6469L216.442 51.434L211.593 48.6469C203.484 44.0356 197.884 41.2992 190.193 38.3094L182.92 35.5224L181.248 32.0766C179.827 28.9854 178.907 26.6038 177.486 21.3844C176.901 19.2054 177.904 19.3574 180.913 21.8911ZM293.016 22.9046C292.348 25.9957 291.679 27.7186 289.338 32.786C288.084 35.3197 287.75 35.5731 280.811 38.3094C273.371 41.1979 267.937 43.8329 259.829 48.3935L255.231 50.9272L257.989 47.8868C261.668 43.9342 267.185 39.2722 278.303 31.0124C283.236 27.3132 288.502 23.2593 289.84 21.9925C291.261 20.7763 292.682 19.7628 293.1 19.7628C293.434 19.7628 293.434 21.1817 293.016 22.9046ZM175.145 36.2825C188.772 39.5256 204.989 47.0253 218.448 56.1973C222.795 59.1364 226.306 61.7208 226.306 61.9235C226.306 62.5822 211.844 59.2377 203.401 56.6027C188.772 52.0927 178.406 46.7213 172.219 40.4377C169.544 37.752 167.956 34.965 169.043 34.965C169.294 34.965 172.136 35.5731 175.145 36.2825ZM299.453 39.4749C297.781 41.4005 294.354 44.3903 291.762 46.0625C283.988 51.2819 266.265 57.7682 250.717 61.062C247.623 61.7208 244.948 62.1768 244.781 62.0248C243.611 61.3154 263.423 48.9509 273.371 44.1876C276.882 42.4647 282.316 40.235 285.325 39.2216C291.762 37.0426 301.878 34.8129 302.212 35.4717C302.379 35.7251 301.125 37.5493 299.453 39.4749ZM168.207 41.3499C171.3 44.593 182.084 51.2819 188.688 54.1704C191.614 55.4372 198.218 57.8189 203.317 59.3898C213.265 62.5315 213.014 62.8863 202.063 61.3154C188.521 59.3391 176.566 54.6771 171.467 49.3563C168.792 46.5693 164.445 39.0189 165.615 39.0189C165.782 39.0189 166.953 40.083 168.207 41.3499ZM303.717 43.3768C302.546 45.5558 300.54 48.3935 299.202 49.6604C293.601 55.0318 282.316 59.3391 268.941 61.3154C257.989 62.8863 257.739 62.5315 267.687 59.3898C272.786 57.8189 279.39 55.4372 282.316 54.1704C288.92 51.2819 299.704 44.593 302.797 41.3499C304.051 40.0323 305.221 39.0695 305.389 39.1709C305.639 39.2722 304.803 41.1979 303.717 43.3768ZM213.349 67.6496C203.568 70.4873 188.27 72.5143 176.566 72.4636C170.882 72.4129 172.47 71.9569 186.682 69.4232C199.137 67.1935 209.336 65.9774 215.439 65.9774H219.201L213.349 67.6496ZM269.944 67.1429C279.557 68.4097 296.527 71.5515 296.527 72.1089C296.527 72.7677 283.486 72.2102 275.043 71.1461C268.523 70.386 254.228 67.2442 252.639 66.2814C251.552 65.572 261.751 66.1294 269.944 67.1429ZM225.888 67.8016C220.538 70.4873 211.343 74.2372 207.414 75.352C201.478 76.9736 191.447 77.4803 182.753 76.5175C174.895 75.7067 174.727 74.9973 182.251 74.9973C193.704 74.9973 206.828 72.9704 219.619 69.2205C225.888 67.3962 227.309 67.0415 225.888 67.8016ZM256.568 70.6394C265.095 73.0717 274.959 74.4906 285.827 74.8453C290.759 74.9973 294.605 75.3013 294.437 75.5547C293.601 76.3148 282.567 77.1256 275.628 76.9229C267.018 76.7202 261.584 75.352 252.221 71.0954C242.524 66.6868 242.608 66.6868 256.568 70.6394Z" fill="#BF0000"/>
</svg>
