<svg width="57" height="57" viewBox="0 0 57 57" fill="none" xmlns="http://www.w3.org/2000/svg">
<circle cx="28.3088" cy="28.3664" r="27.8088" fill="#008EFF"/>
<path d="M22.7482 20.3334V16.6256C22.7482 15.943 23.3016 15.3896 23.9842 15.3896H38.8155C39.4981 15.3896 40.0514 15.943 40.0514 16.6256V33.9288C40.0514 34.6114 39.4981 35.1648 38.8155 35.1648H35.1077V38.8715C35.1077 39.5547 34.5516 40.1085 33.8633 40.1085H19.0489C18.3616 40.1085 17.8047 39.559 17.8047 38.8715L17.8079 21.5704C17.808 20.8873 18.3641 20.3334 19.0523 20.3334H22.7482ZM20.2796 22.8053L20.2768 37.6367H32.6358V22.8053H20.2796ZM25.2201 20.3334H35.1077V32.6929H37.5796V17.8615H25.2201V20.3334ZM22.7485 26.5132H30.1641V28.985H22.7485V26.5132ZM22.7485 31.4569H30.1641V33.9288H22.7485V31.4569Z" fill="white"/>
</svg>
